<svg xmlns="http://www.w3.org/2000/svg" viewBox="0 0 120 120">
    <!-- Background -->
    <rect width="120" height="120" rx="25" fill="#111" />
    
    <!-- Left Frame -->
    <path d="M 15 50 C 20 40, 45 40, 52 45 C 56 48, 55 58, 48 65 C 40 75, 20 72, 15 62 C 10 55, 12 55, 15 50 Z" fill="none" stroke="#fff" stroke-width="7" stroke-linejoin="round" />
    
    <!-- Right Frame -->
    <path d="M 105 50 C 100 40, 75 40, 68 45 C 64 48, 65 58, 72 65 C 80 75, 100 72, 105 62 C 110 55, 108 55, 105 50 Z" fill="none" stroke="#fff" stroke-width="7" stroke-linejoin="round" />
    
    <!-- Bridge -->
    <path d="M 51 50 Q 60 45 69 50" fill="none" stroke="#fff" stroke-width="7" stroke-linecap="round" />
    
    <!-- Left Eyeball -->
    <path d="M 22 56 Q 32 48 42 56 Q 32 64 22 56" fill="none" stroke="#555" stroke-width="2" />
    <!-- Right Eyeball -->
    <path d="M 78 56 Q 88 48 98 56 Q 88 64 78 56" fill="none" stroke="#555" stroke-width="2" />

    <!-- Pupils (Side Eye -> looking right) -->
    <circle cx="38" cy="56" r="4.5" fill="#00ffcc" />
    <circle cx="94" cy="56" r="4.5" fill="#00ffcc" />
</svg>
